<svg width="141" height="97" viewBox="0 0 141 97" fill="none" xmlns="http://www.w3.org/2000/svg">
<path d="M121.873 44.0975H118.958C116.99 45.9693 115.392 46.3242 111.131 46.3242H101.664C100.706 47.2433 99.5458 47.9262 98.2769 48.3185V48.4322H111.131C117.022 48.4322 118.748 47.6292 121.873 44.0975Z" fill="#EA906C"/>
<path d="M54.3431 56.584H38.8641C34.601 56.584 33.0008 56.2281 31.0379 54.3632H28.1219C31.2418 57.893 32.9724 58.696 38.8641 58.696H56.4796C55.7178 58.0438 55.0044 57.338 54.3431 56.584Z" fill="#EA906C"/>
<path d="M69.6015 46.9429L57.5229 38.1685H64.1088L64.7952 36.0585H53.2685C54.4605 32.8249 56.5366 29.9911 59.2605 27.8799C61.9843 25.7687 65.2463 24.4649 68.675 24.1171L69.3799 21.9463C65.2562 22.1772 61.2982 23.6479 58.0244 26.166C54.7506 28.6841 52.3134 32.132 51.032 36.0585L67.8092 48.245L69.6015 46.9429Z" fill="#EA906C"/>
<path d="M64.8804 10.4236C65.6597 10.4267 66.4084 10.1205 66.9621 9.5721C67.5158 9.02373 67.8293 8.27806 67.8337 7.49878C67.8337 6.06825 67.1787 5.48682 66.4992 5.48682C66.214 5.48681 65.9404 5.59977 65.7383 5.80098C65.5362 6.00218 65.422 6.27526 65.4207 6.56045C65.4261 6.83122 65.532 7.0903 65.7177 7.28742C65.9034 7.48454 66.1557 7.60564 66.4257 7.62722C66.1602 8.02298 65.7854 8.33305 65.3469 8.51966C64.9084 8.70627 64.4251 8.76139 63.9558 8.67831C64.0838 8.49629 64.1522 8.27916 64.1519 8.05668C64.1501 7.77415 64.0368 7.50378 63.8367 7.30436C63.6365 7.10495 63.3657 6.99264 63.0832 6.99187C62.7935 7.00892 62.5214 7.13633 62.3228 7.34788C62.1242 7.55944 62.0142 7.83906 62.0155 8.12923C62.0155 9.3372 63.145 10.4236 64.8804 10.4236Z" fill="#EA906C"/>
<path d="M58.4073 19.7951H58.5279C58.4416 18.8764 58.1259 18.3322 57.5474 18.1106C56.6154 17.804 55.8036 17.2114 55.2277 16.417C54.6517 15.6226 54.3409 14.6669 54.3393 13.6857C54.3393 11.4923 55.7433 10.1294 57.5004 10.1294C59.9967 10.1294 60.9007 13.0405 63.7578 13.0405C64.7825 13.0405 65.6208 12.4365 65.6208 11.9257V11.6188H65.0874C61.5067 11.6188 60.9507 8.01942 57.5004 8.01942C56.7764 8.02626 56.0613 8.18049 55.3989 8.47271C54.7364 8.76493 54.1404 9.18901 53.6471 9.71911C53.1539 10.2492 52.7739 10.8742 52.5301 11.556C52.2863 12.2378 52.184 12.9621 52.2293 13.6847C52.2205 14.4951 52.3748 15.2991 52.683 16.0487C52.9912 16.7983 53.447 17.4783 54.0233 18.0483C54.5995 18.6182 55.2845 19.0665 56.0375 19.3664C56.7905 19.6663 57.596 19.8118 58.4064 19.7941" fill="#EA906C"/>
<path d="M42.7214 48.4332V48.3195C41.4504 47.9273 40.2882 47.2445 39.3269 46.3252H29.8691C25.606 46.3252 24.0038 45.9693 22.038 44.0985H19.124C22.2458 47.6282 23.9754 48.4342 29.8681 48.4342L42.7214 48.4332Z" fill="#EA906C"/>
<path d="M61.2497 58.2322L59.4034 59.5677C62.7079 61.7112 66.5628 62.8507 70.5016 62.8484C74.8221 62.8527 79.0319 61.4819 82.5214 58.9343L82.5322 58.9401L76.1227 39.2206H73.9098L78.5249 53.4151L73.1989 49.549L71.4036 50.8511L80.7183 57.6165C77.7013 59.6516 74.1447 60.7381 70.5055 60.7364C67.2531 60.7391 64.059 59.8729 61.2536 58.2273" fill="#EA906C"/>
<path d="M68.4171 6.41632L70.5035 4.90049L72.5861 6.41927L71.7919 3.96804L73.8794 2.45122H71.3007L70.5035 0L69.7044 2.45122H67.1257L69.2142 3.96804L68.4171 6.41632Z" fill="#EA906C"/>
<path d="M25.356 43.2994H38.2102V43.1906C36.9389 42.8018 35.7772 42.1185 34.8197 41.1962H25.356C20.5457 41.1962 19.1289 40.7452 16.7424 38.1724H49.3839C49.5233 37.4604 49.702 36.7566 49.9192 36.0644H12.137L13.5999 37.7989C17.4238 42.3317 18.8583 43.3033 25.356 43.3033" fill="#EA906C"/>
<path d="M34.3677 53.5631H47.2199V53.4524C45.9488 53.0604 44.7872 52.376 43.8284 51.4541H34.3677C30.1045 51.4541 28.5053 51.0972 26.5375 49.2294H23.6254C26.7444 52.7591 28.4739 53.5631 34.3677 53.5631Z" fill="#EA906C"/>
<path d="M68.5505 38.1685H83.4745L78.1504 42.0385L78.8368 44.1465L88.1642 37.3713C88.6269 39.0012 88.8615 40.6873 88.8613 42.3816C88.8628 44.969 88.3157 47.5273 87.2562 49.8879C86.1967 52.2484 84.6488 54.3575 82.7146 56.0761L83.4196 58.2489C85.7783 56.3318 87.6799 53.9129 88.9859 51.1682C90.292 48.4235 90.9695 45.4222 90.9694 42.3826C90.9701 40.2351 90.6313 38.101 89.9653 36.0594H69.2309L68.5505 38.1685Z" fill="#EA906C"/>
<path d="M58.47 58.9333V58.945L75.2452 46.7585L74.5589 44.6485L62.4842 53.419L64.5157 47.1625L62.7224 45.8555L59.1642 56.8066C56.9767 55.0921 55.2078 52.9026 53.9912 50.4037C52.7747 47.9048 52.1423 45.1619 52.142 42.3826C52.1416 41.0694 52.2833 39.76 52.5646 38.4773L50.7134 37.136C50.2587 38.8482 50.028 40.6121 50.027 42.3836C50.0282 45.6127 50.7937 48.7956 52.261 51.672C53.7282 54.5485 55.8566 57.0367 58.47 58.9333Z" fill="#EA906C"/>
<path d="M69.176 13.2837C69.7169 13.8819 70.1558 14.5649 70.4752 15.3054C70.483 15.3172 70.4918 15.3299 70.5046 15.3456C70.5115 15.3311 70.5204 15.3176 70.5311 15.3054C70.8486 14.5637 71.2881 13.8804 71.8312 13.2837C71.5029 12.5258 71.055 11.8257 70.5046 11.2099C69.9503 11.8229 69.5007 12.5237 69.176 13.2837Z" fill="#EA906C"/>
<path d="M66.7669 16.836C67.4062 16.7379 68.0543 16.6732 68.7034 16.6281C68.3112 14.7534 67.2454 13.4709 66.1953 13.4709C65.9334 13.4824 65.6808 13.5718 65.4701 13.7278C65.2594 13.8839 65.1002 14.0993 65.0128 14.3465C65.6227 14.4583 66.3512 15.2074 66.7669 16.836Z" fill="#EA906C"/>
<path d="M70.5046 6.68987C70.0564 6.68961 69.6265 6.86731 69.3094 7.18392C68.9922 7.50053 68.8138 7.93013 68.8132 8.37827C68.8138 8.82641 68.9922 9.256 69.3094 9.57261C69.6265 9.88922 70.0564 10.0669 70.5046 10.0667C70.7262 10.0667 70.9457 10.023 71.1504 9.93811C71.3551 9.85324 71.5411 9.72884 71.6978 9.57203C71.8544 9.41522 71.9786 9.22908 72.0632 9.02424C72.1478 8.81941 72.1913 8.5999 72.191 8.37827C72.1913 8.15664 72.1478 7.93713 72.0632 7.73229C71.9786 7.52746 71.8544 7.34131 71.6978 7.1845C71.5411 7.02769 71.3551 6.9033 71.1504 6.81843C70.9457 6.73355 70.7262 6.68987 70.5046 6.68987Z" fill="#EA906C"/>
<path d="M60.0937 18.8597C60.633 18.61 61.1827 18.3776 61.7429 18.1626C61.4703 17.338 60.9585 16.4163 59.9888 16.4163C59.7534 16.4337 59.5291 16.5229 59.3462 16.672C59.1633 16.8211 59.0306 17.0227 58.9661 17.2497C59.4103 17.4115 59.7829 17.7968 60.0927 18.8597" fill="#EA906C"/>
<path d="M62.9469 14.8838C62.6961 14.8948 62.4543 14.9805 62.2525 15.1299C62.0508 15.2793 61.8982 15.4855 61.8145 15.7221C62.2723 15.7888 62.8832 16.1604 63.3362 17.6204C63.9245 17.4429 64.5216 17.2909 65.1295 17.1537C64.6961 15.7055 63.9127 14.8838 62.9469 14.8838Z" fill="#EA906C"/>
<path d="M79.1888 15.7182C79.1058 15.4814 78.9537 15.275 78.7522 15.1255C78.5507 14.9761 78.3089 14.8905 78.0582 14.8799C77.0885 14.8799 76.3091 15.6996 75.8747 17.1488C76.4836 17.289 77.0807 17.4429 77.671 17.6223C78.121 16.1516 78.7309 15.7849 79.1888 15.7182Z" fill="#EA906C"/>
<path d="M75.3855 11.6208V11.9267C75.3855 12.4375 76.2268 13.0435 77.2484 13.0435C80.1016 13.0435 81.0076 10.1324 83.5049 10.1324C85.2629 10.1324 86.6621 11.4953 86.6621 13.6876C86.6614 14.6688 86.3512 15.6247 85.7757 16.4193C85.2003 17.2139 84.3888 17.8068 83.4569 18.1136C82.8774 18.3352 82.5607 18.8793 82.4764 19.798H82.597C83.4073 19.8154 84.2129 19.6698 84.9658 19.3697C85.7187 19.0696 86.4036 18.6213 86.9798 18.0513C87.556 17.4813 88.0118 16.8013 88.32 16.0516C88.6283 15.302 88.7827 14.4981 88.7741 13.6876C88.8191 12.9651 88.7165 12.241 88.4727 11.5594C88.2288 10.8778 87.8487 10.2529 87.3555 9.72299C86.8623 9.19304 86.2664 8.76904 85.6041 8.47683C84.9417 8.18463 84.2269 8.03033 83.503 8.02335C80.0507 8.02335 79.4996 11.6227 75.9159 11.6227L75.3855 11.6208Z" fill="#EA906C"/>
<path d="M82.0361 17.2497C81.9715 17.0237 81.8394 16.8228 81.6576 16.6738C81.4757 16.5249 81.2527 16.435 81.0183 16.4163C80.0467 16.4163 79.5349 17.3448 79.2593 18.1655C79.8202 18.3793 80.3702 18.6097 80.9085 18.8617C81.2183 17.7968 81.589 17.4105 82.0351 17.2488" fill="#EA906C"/>
<path d="M73.1696 7.49878C73.174 8.27806 73.4874 9.02373 74.0411 9.5721C74.5948 10.1205 75.3435 10.4267 76.1228 10.4236C77.8632 10.4236 78.9937 9.33622 78.9937 8.12825C78.9949 7.8376 78.8845 7.55757 78.6853 7.34594C78.486 7.13431 78.2132 7.00722 77.923 6.99089C77.6403 6.99241 77.3695 7.10483 77.1689 7.30397C76.9683 7.50312 76.8539 7.77306 76.8503 8.0557C76.852 8.27892 76.9229 8.49611 77.0533 8.67733C76.5839 8.75997 76.1006 8.70466 75.662 8.5181C75.2235 8.33153 74.8484 8.02172 74.5824 7.62624C74.8527 7.60512 75.1055 7.48423 75.2916 7.28706C75.4778 7.08989 75.5839 6.83055 75.5894 6.55947C75.5879 6.27445 75.4735 6.00163 75.2714 5.80063C75.0693 5.59964 74.7959 5.48681 74.5109 5.48682C73.8333 5.48682 73.1725 6.06727 73.1725 7.4978" fill="#EA906C"/>
<path d="M74.8059 13.469C73.7568 13.469 72.6959 14.7515 72.2988 16.6281C72.9518 16.6742 73.5979 16.7389 74.2343 16.8379C74.65 15.2054 75.3805 14.4563 75.9923 14.3465C75.9044 14.0987 75.7446 13.8828 75.5332 13.7264C75.3218 13.5701 75.0686 13.4804 74.8059 13.469Z" fill="#EA906C"/>
<path d="M117.373 49.2303H114.459C112.49 51.0982 110.891 51.4551 106.628 51.4551H97.167C96.2089 52.3775 95.0475 53.062 93.7764 53.4533V53.5641H106.627C112.52 53.5641 114.25 52.7601 117.371 49.2313" fill="#EA906C"/>
<path d="M112.873 54.3632H109.959C107.998 56.2262 106.394 56.584 102.13 56.584H86.6512C85.9891 57.3366 85.2756 58.0423 84.5157 58.696H102.128C108.018 58.696 109.752 57.894 112.871 54.3632" fill="#EA906C"/>
<path d="M70.5006 21.9139L64.0902 41.6374L65.8855 42.9386L70.4938 28.7411L72.5312 35.0015H74.7461L71.1899 24.0514C74.6323 24.1827 77.9684 25.2792 80.8175 27.2155C83.6666 29.1519 85.9141 31.8502 87.3033 35.0025H89.5868C88.0934 31.1525 85.4722 27.8432 82.0665 25.508C78.6607 23.1727 74.6291 21.9204 70.4997 21.9149" fill="#EA906C"/>
<path d="M81.9341 22.9797V20.8138C78.4465 18.8278 74.5137 17.755 70.5006 17.6949C66.4856 17.754 62.5507 18.8268 59.0613 20.8138V22.9797C62.5213 20.9161 66.472 19.8197 70.5006 19.8049C74.5275 19.8187 78.4766 20.9153 81.9341 22.9797Z" fill="#EA906C"/>
<path d="M124.247 38.1685C121.861 40.7413 120.444 41.1913 115.635 41.1913H106.17C105.212 42.1143 104.05 42.7983 102.778 43.1876V43.2994H115.634C122.128 43.2994 123.564 42.3277 127.388 37.7939L128.852 36.0594H91.0743C91.2867 36.7533 91.4634 37.4575 91.6037 38.1694L124.247 38.1685Z" fill="#EA906C"/>
<path d="M14.9804 90.9384V89.5834H12.1478V95.8379H14.8863V93.4328C15.2245 92.4317 17.3375 92.7337 17.3375 92.7337V89.7275C15.3677 89.5804 14.9843 90.9345 14.9843 90.9345" fill="#EA906C"/>
<path d="M73.6078 90.9384V89.5834H70.7742V95.8379H73.5127V93.4328C73.8471 92.4317 75.964 92.7337 75.964 92.7337V89.7275C73.9922 89.5804 73.6108 90.9345 73.6108 90.9345" fill="#EA906C"/>
<path d="M117.188 89.2853C117.188 89.2853 113.419 89.1873 113.176 92.4072C113.176 92.4072 113.13 96.035 117.238 95.833C117.238 95.833 120.815 96.1389 120.963 92.5601C120.963 92.5601 121.109 89.2853 117.189 89.2853M118.301 92.5101C118.203 93.872 117.143 93.7681 117.143 93.7681C116.032 93.7171 115.981 92.4591 115.981 92.4591C116.127 90.8904 117.239 90.9943 117.239 90.9943C118.351 91.0453 118.301 92.5101 118.301 92.5101Z" fill="#EA906C"/>
<path d="M22.6429 89.2853C22.6429 89.2853 18.8739 89.1873 18.6308 92.4072C18.6308 92.4072 18.5847 96.035 22.6919 95.833C22.6919 95.833 26.2707 96.1389 26.4178 92.5601C26.4178 92.5601 26.5629 89.2853 22.6439 89.2853M23.7568 92.5101C23.6587 93.872 22.5988 93.7681 22.5988 93.7681C21.4859 93.7171 21.435 92.4591 21.435 92.4591C21.5811 90.8904 22.6929 90.9943 22.6929 90.9943C23.8068 91.0453 23.7568 92.5101 23.7568 92.5101Z" fill="#EA906C"/>
<path d="M31.3594 92.6866L30.2985 89.5834H26.9404L29.5357 94.9849H27.5169V96.788H30.7368C32.2252 97.039 33.1341 94.6309 33.1341 94.6309L35.3892 89.5785H32.3134L31.3594 92.6866Z" fill="#EA906C"/>
<path d="M41.3497 90.3825C40.7426 89.7891 39.942 89.4344 39.0946 89.3833C39.0946 89.3833 36.3571 89.2333 36.2639 92.5366C36.2639 92.5366 35.9247 95.5369 38.8495 95.8408C39.3303 95.8762 39.8121 95.7888 40.2499 95.5867C40.6876 95.3847 41.0667 95.0747 41.3517 94.6858V95.8408H44.1353V89.5844H41.3487L41.3497 90.3825ZM41.4478 92.7356C41.3497 94.0858 40.2457 94.0377 40.2457 94.0377C39.0446 94.0377 39.0446 92.6856 39.0446 92.6856C39.0946 91.0306 40.3908 91.2316 40.3908 91.2316C41.5929 91.2316 41.4478 92.7356 41.4478 92.7356Z" fill="#EA906C"/>
<path d="M61.3291 90.3825C60.722 89.7891 59.9214 89.4344 59.074 89.3833C59.074 89.3833 56.3355 89.2333 56.2394 92.5366C56.2394 92.5366 55.9021 95.5369 58.8288 95.8408C59.3095 95.8761 59.7912 95.7885 60.2287 95.5865C60.6662 95.3845 61.0452 95.0745 61.3301 94.6858V95.8408H64.1127V89.5844H61.3281L61.3291 90.3825ZM61.4271 92.7356C61.3291 94.0858 60.2241 94.0377 60.2241 94.0377C59.0249 94.0377 59.0249 92.6856 59.0249 92.6856C59.075 91.0306 60.3682 91.2316 60.3682 91.2316C61.5732 91.2316 61.4281 92.7356 61.4281 92.7356" fill="#EA906C"/>
<path d="M109.407 90.9384V89.5834H106.574V95.8379H109.309V93.4328C109.643 92.4317 111.761 92.7337 111.761 92.7337V89.7275C109.792 89.5804 109.407 90.9345 109.407 90.9345" fill="#EA906C"/>
<path d="M101.911 90.3825C101.304 89.7883 100.503 89.4334 99.6555 89.3833C99.6555 89.3833 96.915 89.2333 96.8199 92.5366C96.8199 92.5366 96.4845 95.5369 99.4113 95.8408C99.8913 95.8754 100.372 95.7875 100.809 95.5855C101.246 95.3835 101.624 95.074 101.909 94.6858V95.8408H104.694V89.5844H101.909L101.911 90.3825ZM102.009 92.7356C101.911 94.0858 100.809 94.0377 100.809 94.0377C99.6084 94.0377 99.6084 92.6856 99.6084 92.6856C99.6584 91.0306 100.952 91.2316 100.952 91.2316C102.157 91.2316 102.009 92.7356 102.009 92.7356Z" fill="#EA906C"/>
<path d="M48.7906 88.4833H45.9109V95.8409H48.7906V88.4833Z" fill="#EA906C"/>
<path d="M68.821 89.5873H65.9403V95.8408H68.821V89.5873Z" fill="#EA906C"/>
<path d="M68.821 88.4568H65.9403V89.2843H68.821V88.4568Z" fill="#EA906C"/>
<path d="M93.1235 89.4843C91.8282 89.1833 90.6722 90.7315 90.6722 90.7315C90.4823 90.3384 90.1804 90.0102 89.8044 89.7883C89.4285 89.5664 88.9952 89.4606 88.5593 89.4843C88.0501 89.473 87.5484 89.6082 87.1138 89.8738C86.6793 90.1394 86.3302 90.5242 86.1081 90.9825V89.5824H83.3274V95.8408H86.0728V92.5366C86.2179 91.6316 86.9376 91.7316 86.9376 91.7316C87.7543 91.5855 87.6062 92.6866 87.6062 92.6866V95.8408H90.5389V92.4346C90.5588 92.2309 90.653 92.0416 90.8034 91.9028C90.9538 91.7639 91.15 91.6852 91.3547 91.6816C92.0263 91.5836 92.1714 92.5366 92.1714 92.5366V95.8408H95.1462L95.1521 91.1816C95.0801 90.7013 94.8352 90.2638 94.4635 89.9513C94.0918 89.6388 93.6188 89.4728 93.1333 89.4843" fill="#EA906C"/>
<path d="M122.277 92.7356C122.277 92.7356 122.277 95.6898 125.833 95.8398C125.833 95.8398 128.138 95.8398 128.856 94.7848V93.3347C128.203 93.6651 127.475 93.8205 126.743 93.7857C126.743 93.7857 125.111 93.8838 125.111 92.4807C125.127 92.1637 125.268 91.8659 125.501 91.6512C125.735 91.4365 126.044 91.3221 126.361 91.3325C127.209 91.2003 128.077 91.321 128.856 91.6796V89.7814C127.79 89.4258 126.67 89.2563 125.545 89.2804C125.1 89.2795 124.659 89.3697 124.25 89.5453C123.841 89.721 123.472 89.9784 123.166 90.3018C122.86 90.6252 122.623 91.0077 122.471 91.4259C122.318 91.8441 122.252 92.2891 122.277 92.7337" fill="#EA906C"/>
<path d="M20.6653 80.6619C20.833 81.5287 21.1987 81.8767 22.136 81.8051C23.0734 81.7336 24.7676 80.1069 23.9342 76.8782C23.6247 77.3825 23.3681 77.9174 23.1685 78.4744C23.1685 78.7519 23.3646 79.1353 23.1351 79.2343C22.9057 79.3333 21.0693 79.8295 21.2369 78.0911C19.4044 78.8215 14.6421 80.9394 10.377 80.9394C7.82774 80.9394 6.54527 81.2502 5.49222 80.1285C4.99119 79.4294 3.68125 78.4078 2.81547 80.2785C1.91539 81.5532 1.88401 82.7435 1.31533 82.6376C0.717228 82.5258 0.449553 81.2826 0.28385 79.7942C-0.349546 81.9101 0.172101 84.6515 0.917272 84.6152C1.64185 84.6152 2.09385 83.2867 2.47134 82.4719C2.84883 81.6571 2.99885 81.31 3.54988 81.2816C5.61381 81.3894 3.45182 83.5367 10.1113 83.2249C13.2096 82.9151 17.2081 82.2934 19.9044 80.3815C20.4055 79.9658 20.5388 79.8608 20.6712 80.6599" fill="#EA906C"/>
<path d="M140.924 74.4103C140.553 75.1936 140.072 75.92 139.496 76.5674C139.496 77.5753 139.658 83.9965 139.427 84.4446C139.991 83.4033 141.06 82.1199 140.991 81.1472C140.922 80.1746 141.089 74.8721 140.925 74.4132" fill="#EA906C"/>
<path d="M132.897 76.5321L132.1 75.7987L130.433 76.9811L131.403 77.8842L132.897 76.5321Z" fill="fff"/>
<path d="M136.129 78.0548C136.165 77.5018 136.031 77.3969 136.227 77.0861C136.423 76.7752 137.063 75.9732 137.063 75.9732C136.294 75.5594 135.963 75.4898 136.294 74.3064C136.294 74.3064 134.86 75.4516 134.962 76.2497C135.064 77.0478 135.194 77.1165 135.194 77.4635L135.162 78.7833C135.162 78.7833 135.162 79.2735 134.493 79.2735L129.366 79.3412C129.091 79.9084 128.756 80.4443 128.366 80.9394C128.366 80.9394 131.265 81.4914 131.4 81.5993C129.408 82.0362 127.372 82.2337 125.333 82.1875C126.867 80.9707 127.201 79.7236 126.301 79.097C125.401 78.4705 124.574 78.194 120.373 80.2079C120.303 79.1792 120.314 78.1464 120.407 77.1194C120.47 76.9478 121.039 76.7056 120.904 76.0095C120.768 75.3133 120.139 74.6897 120.307 74.1721C119.724 74.9775 119.325 75.9009 119.138 76.8772C119.204 77.3273 119.541 77.5008 119.571 77.9881L119.638 80.557C119.173 80.8335 118.167 81.3914 117.971 81.5277C117.414 81.5786 116.854 81.4876 116.342 81.2634C115.83 81.0391 115.383 80.6888 115.043 80.2452C114.573 78.9627 113.643 77.2243 112.678 77.1527C112.143 77.1194 111.275 78.7215 110.943 79.3402C110.61 79.9589 109.976 80.8688 110.113 81.2826C110.251 81.6963 111.78 82.465 113.741 82.3964C112.912 83.3318 108.145 84.5142 107.279 84.5809C109.109 85.031 111.011 85.114 112.873 84.8251C113.508 84.6535 114.51 83.2651 114.51 83.2651C116.365 83.9683 118.323 84.3657 120.306 84.4417C123.071 84.541 125.841 84.4607 128.597 84.2015C130.196 83.9936 133.891 83.471 134.629 83.4014C135.499 83.2627 136.383 83.217 137.263 83.2651L138.896 81.3169C137.728 81.1142 136.58 80.8134 135.464 80.4178C135.95 79.7296 136.186 78.8957 136.133 78.0548M112.046 80.3825C111.713 80.3178 111.513 79.7236 111.513 79.0627C111.692 79.0263 111.877 79.0304 112.054 79.0748C112.232 79.1191 112.397 79.2026 112.538 79.3191C112.679 79.4355 112.792 79.582 112.869 79.7479C112.946 79.9137 112.985 80.0947 112.983 80.2775C112.88 80.4893 112.381 80.4491 112.048 80.3825M119.05 82.1875C120.109 81.5992 123.675 80.2775 124.839 80.9384C124.809 82.1875 120.578 82.3591 119.05 82.1875Z" fill="#EA906C"/>
<path d="M100.716 83.1239C99.3662 82.917 98.1671 83.0759 97.718 82.968C100.115 84.0593 101.315 84.6348 103.713 84.426C106.11 84.2172 108.959 81.3561 108.713 79.9471C108.467 78.5382 106.418 78.2803 102.268 81.3551C102.453 80.0793 102.495 78.7869 102.393 77.5018C102.992 77.1635 103.168 76.5909 103.068 76.5909C102.872 76.4283 102.653 76.2961 102.418 76.1987C102.342 75.7468 102.367 75.2835 102.493 74.8427C101.744 74.9741 101.316 76.0948 101.218 76.9782C101.12 77.8616 101.468 77.9165 101.518 78.3332L101.818 81.8757C101.369 82.2099 100.995 82.6344 100.72 83.1219M104.867 80.859C106.043 80.8041 106.393 81.4071 106.419 81.8473C105.37 82.7023 102.369 82.8641 101.896 82.8347C102.393 82.1601 103.695 80.909 104.867 80.859Z" fill="#EA906C"/>
<path d="M94.9197 81.2502C94.9197 81.2502 94.8952 74.9231 94.7697 74.6378C94.6491 74.8976 93.5205 76.8772 93.5205 76.8772C93.6186 78.5676 93.848 83.2572 93.3715 84.3505C94.1407 83.4643 94.674 82.3977 94.9197 81.2502Z" fill="#EA906C"/>
<path d="M88.9025 82.7886C89.1241 84.0093 89.4251 84.6515 90.2487 84.6878C90.7742 84.7143 91.5694 83.2857 91.7998 82.4209C92.0302 81.5561 92.6558 79.8412 91.5988 79.4578C90.9487 79.2186 90.5742 79.7971 90.1742 79.5843C89.9986 79.402 90.0241 78.7999 90.0241 78.7999L90.0957 77.5253C90.5222 77.0086 90.6987 76.6978 90.6477 76.2791C90.5967 75.8604 89.8996 75.7045 89.8996 75.5486C89.8996 75.3927 89.7231 74.7437 89.8516 74.4574C89.2643 75.2514 88.7999 76.1293 88.474 77.0615C88.474 77.5018 89.0515 77.6332 89.0515 77.9969C89.0515 77.9969 89.1495 80.001 89.1015 80.3393C88.273 80.9639 84.8766 82.6582 83.1538 82.3709C82.3793 82.266 82.3038 81.1727 82.2793 80.5227L82.3773 74.9486C82.1212 75.4565 81.8024 75.9302 81.4282 76.3585L81.3301 79.8206C81.3705 80.1707 81.2837 80.5236 81.0858 80.8151C80.8879 81.1066 80.5918 81.3174 80.2516 81.409C79.4191 81.8323 78.4985 82.0529 77.5646 82.0529C76.6307 82.0529 75.71 81.8323 74.8775 81.409L69.5584 77.6832C69.5584 77.6832 69.3623 77.389 69.6839 77.3429C69.6839 77.3429 75.6051 76.7939 76.0571 76.7723C76.5091 76.7507 76.6709 76.9301 76.562 77.3939C76.4552 77.8106 75.256 78.695 74.7844 78.9627C76.3532 78.4911 78.0328 77.3469 77.8827 75.629C77.8161 74.8799 76.9591 75.0045 76.0835 75.0045C76.0835 75.0045 67.9641 74.5887 67.9641 77.3733C67.8396 78.8617 68.2151 78.8617 68.7887 79.3539L70.4624 80.8639C70.0879 81.9061 69.0378 81.6689 68.4132 81.2031C68.174 80.9988 67.9945 80.7338 67.8935 80.4359C67.7926 80.138 67.7739 79.8184 67.8396 79.5108C63.8147 81.2257 62.1939 81.6973 59.6447 81.6424C57.0954 81.5875 55.6452 81.5443 54.6981 80.1324C54.5052 79.9264 54.2658 79.7697 53.9998 79.6754C53.7338 79.581 53.4491 79.5518 53.1695 79.5903C52.89 79.6287 52.6237 79.7336 52.393 79.8961C52.1624 80.0587 51.974 80.2742 51.8439 80.5246C50.9457 81.7993 50.2957 82.2895 49.8751 82.217C49.276 82.112 49.6241 80.003 49.777 79.6912C49.93 79.3794 49.8025 79.0647 49.4995 79.6147C48.5289 81.2237 48.2043 84.5819 50.0025 84.5819C50.7271 84.5819 51.2987 83.2886 51.6762 82.4758C52.0537 81.663 52.1978 81.513 52.7499 81.4845C54.0745 81.459 52.9254 84.0103 59.1495 83.9357C61.9634 83.7287 64.7148 83.0034 67.265 81.7963C67.6651 82.9425 68.4916 84.1142 69.2642 84.0358C69.7996 84.0294 70.314 83.8268 70.7099 83.4665C71.1059 83.1061 71.3559 82.613 71.4125 82.0807L71.69 82.0042C72.8107 82.967 74.5618 84.5309 77.1101 84.5535C77.9816 84.5349 78.8302 84.2711 79.5586 83.7923C80.2869 83.3135 80.8656 82.639 81.2282 81.8463C81.5782 83.0729 82.0528 84.4505 83.5755 84.475C85.4515 84.303 87.2679 83.7263 88.8995 82.7846M89.9781 81.4198C90.9772 81.2639 91.4664 82.4709 91.0909 82.7317C89.8163 82.9906 89.9055 81.864 89.9781 81.4198Z" fill="#EA906C"/>
<path d="M52.7469 76.8262C52.3238 76.7092 51.9192 76.5337 51.5448 76.3046L49.9005 77.6096L50.9987 78.1813C50.9987 78.1813 52.0478 77.2988 52.4969 77.3478C52.9052 77.4701 53.2808 77.6825 53.596 77.9695C54.1194 77.5039 54.6698 77.0694 55.2442 76.6684C54.9869 76.358 54.6623 76.1102 54.2951 75.9438C53.8183 76.302 53.2981 76.5985 52.7469 76.8262Z" fill="#EA906C"/>
<path d="M67.8052 83.9573L67.0051 83.2278C66.5027 83.5144 65.9661 83.7361 65.4079 83.8877C65.0323 83.738 64.6835 83.528 64.3755 83.2661C63.8219 83.6587 63.2307 83.9954 62.6106 84.2711L63.6754 84.929C63.6754 84.929 64.9089 84.2015 65.1756 84.3074C65.4991 84.4701 65.8113 84.6546 66.11 84.8594L67.8052 83.9573Z" fill="#EA906C"/>
<path d="M46.0521 81.459C46.0521 81.459 45.5266 75.2378 45.4011 74.9486C45.2766 75.2114 44.149 77.19 44.149 77.19C44.5029 79.2745 45.0775 83.7494 44.6 84.8447C45.3768 83.8655 45.8781 82.6967 46.0521 81.459Z" fill="#EA906C"/>
<path d="M40.0868 82.5033C40.3143 83.724 40.1976 84.5348 41.2556 84.6907C41.9517 84.7956 42.2302 83.724 42.4518 82.869C42.6733 82.014 43.5019 80.1158 42.4459 79.7314C41.7978 79.4981 41.4193 80.0658 41.0212 79.8618C40.8467 79.6804 40.8693 79.0774 40.8693 79.0774L40.9075 78.0666C41.0757 77.8994 41.2033 77.6959 41.2805 77.4717C41.3577 77.2475 41.3824 77.0085 41.3526 76.7733C41.3046 76.3576 40.7114 76.2428 40.7114 76.0869C40.7114 75.9311 40.5369 75.278 40.6614 74.9957C40.0753 75.7886 39.6125 76.6656 39.2887 77.5969C39.2887 78.0371 39.925 78.0371 39.925 78.4038C39.925 78.4038 39.975 80.2825 39.925 80.6217C39.1014 81.2463 35.9913 82.5297 34.8589 81.2463C35.3877 80.8027 36.0162 80.4938 36.6904 80.3462L37.1267 78.1891C36.0266 77.9116 31.7948 77.2184 29.7956 77.6351L28.8994 79.4726C29.2812 79.5147 29.6593 79.5845 30.0309 79.6814C30.3231 79.8285 30.5656 80.0583 30.7281 80.3423C28.7705 80.3979 26.8492 80.8832 25.1001 81.764C23.9646 82.4915 21.635 84.5093 21.2683 84.1927C20.9016 83.876 20.9016 84.0868 21.4007 82.2866C20.8016 82.769 20.0133 84.6299 20.8673 84.9947C22.338 85.6173 25.1304 82.8062 26.8287 82.667C28.3974 82.0062 31.2605 82.0787 31.5605 81.714C32.4568 82.6671 33.6255 83.3204 34.9069 83.5847C37.8994 84.1397 39.4897 82.2297 40.0868 82.4915M41.0222 81.511C41.1981 81.4771 41.3801 81.4958 41.5453 81.5649C41.7105 81.634 41.8517 81.7504 41.951 81.8995C42.0503 82.0486 42.1033 82.2237 42.1035 82.4028C42.1036 82.5819 42.0508 82.757 41.9517 82.9062C40.8536 83.1141 40.9477 81.9503 41.0222 81.511ZM32.7253 79.9569L31.9596 79.0196C32.7965 78.9719 33.6362 79.0295 34.4588 79.1912L32.7253 79.9569Z" fill="#EA906C"/>
<path d="M33.3901 76.8782L34.8549 75.8712L34.1911 75.2104L32.3929 76.2183L33.3901 76.8782Z" fill="#EA906C"/>
<path d="M3.54502 77.1537C3.87839 77.0557 4.80986 77.5714 4.91085 77.5361C5.01184 77.5008 6.40806 76.3595 6.40806 76.3595L5.27754 75.9046C4.87554 75.9046 4.40982 76.7772 4.2098 76.8429C4.00978 76.9086 3.34401 76.5331 2.67728 76.2546C2.21365 76.7901 1.68691 77.2675 1.10852 77.6763C1.34188 77.7479 2.40765 78.1293 2.40765 78.1293C2.73694 77.7523 3.11826 77.4241 3.54011 77.1547" fill="#EA906C"/>
<path d="M19.0338 82.5327C18.7681 82.4993 17.7023 83.4004 17.5023 83.4004C17.269 83.3318 16.4355 82.7768 16.2012 82.8121C15.5902 83.2047 15.0116 83.6453 14.4706 84.1299L15.8698 84.7515C16.3433 84.415 16.8342 84.1038 17.3405 83.8191C17.5082 83.7828 18.273 84.4074 18.4397 84.4407C19.0512 84.1006 19.6313 83.7068 20.1732 83.2641C19.8278 82.9733 19.4469 82.7276 19.0397 82.5327" fill="#EA906C"/>
<path d="M27.0277 84.0593L26.2942 83.4377L24.9628 84.1309L25.6275 84.9643L27.0277 84.0593Z" fill="#EA906C"/>
</svg>
